<?xml version="1.0" encoding="UTF-8" standalone="no"?>
<!DOCTYPE svg PUBLIC "-//W3C//DTD SVG 1.1//EN" "http://www.w3.org/Graphics/SVG/1.1/DTD/svg11.dtd">
<svg width="100%" height="100%" viewBox="0 0 750 127" version="1.1" xmlns="http://www.w3.org/2000/svg" xmlns:xlink="http://www.w3.org/1999/xlink" xml:space="preserve" xmlns:serif="http://www.serif.com/" style="fill-rule:evenodd;clip-rule:evenodd;stroke-linejoin:round;stroke-miterlimit:2;">
    <g transform="matrix(1,0,0,1,-2806.58,-643.658)">
        <g id="アートボード2" transform="matrix(1,0,0,1,-0.648294,0)">
            <rect x="2688.65" y="0" width="2480.32" height="3507.87" style="fill:none;"/>
            <g id="Magneto">
            </g>
            <g id="Bauhaus-93" serif:id="Bauhaus 93" transform="matrix(1,0,0,1,1531.88,534.887)">
                <g transform="matrix(125,0,0,125,1268.7,196.784)">
                    <path d="M0.422,-0.407L0.422,-0.259L0.293,-0.259C0.275,-0.259 0.263,-0.256 0.256,-0.251C0.248,-0.246 0.245,-0.237 0.245,-0.225C0.245,-0.211 0.248,-0.201 0.256,-0.197C0.263,-0.193 0.279,-0.19 0.302,-0.19L0.435,-0.19L0.435,-0L0.279,-0C0.206,-0 0.15,-0.017 0.111,-0.052C0.073,-0.087 0.053,-0.138 0.053,-0.204L0.053,-0.465C0.053,-0.529 0.072,-0.579 0.108,-0.614C0.145,-0.649 0.196,-0.667 0.263,-0.667L0.435,-0.667L0.435,-0.475L0.309,-0.475C0.274,-0.475 0.257,-0.464 0.257,-0.442C0.257,-0.429 0.261,-0.42 0.27,-0.415C0.278,-0.41 0.292,-0.407 0.313,-0.407L0.422,-0.407Z" style="fill-rule:nonzero;"/>
                </g>
                <g transform="matrix(125,0,0,125,1328.94,196.784)">
                    <path d="M0.487,-0L0.305,-0L0.305,-0.275C0.305,-0.303 0.293,-0.317 0.27,-0.317C0.247,-0.317 0.236,-0.303 0.236,-0.275L0.236,-0L0.053,-0L0.053,-0.271C0.053,-0.335 0.074,-0.388 0.116,-0.432C0.158,-0.475 0.21,-0.497 0.271,-0.497C0.34,-0.497 0.396,-0.472 0.438,-0.421C0.471,-0.382 0.487,-0.327 0.487,-0.257L0.487,-0Z" style="fill-rule:nonzero;"/>
                </g>
                <g transform="matrix(125,0,0,125,1396.51,196.784)">
                    <path d="M0.313,-0.201L0.313,-0.033C0.287,-0.023 0.261,-0.019 0.237,-0.019C0.178,-0.019 0.128,-0.041 0.088,-0.085C0.047,-0.13 0.026,-0.185 0.026,-0.249C0.026,-0.319 0.051,-0.377 0.1,-0.425C0.149,-0.473 0.21,-0.497 0.281,-0.497C0.319,-0.497 0.356,-0.489 0.391,-0.474C0.425,-0.459 0.453,-0.438 0.473,-0.413C0.506,-0.37 0.522,-0.308 0.522,-0.227L0.522,0.005C0.522,0.092 0.498,0.162 0.448,0.216C0.399,0.271 0.335,0.298 0.256,0.298C0.232,0.298 0.201,0.292 0.165,0.28L0.165,0.114C0.188,0.127 0.212,0.133 0.237,0.133C0.27,0.133 0.295,0.122 0.313,0.101C0.331,0.079 0.34,0.048 0.34,0.008L0.34,-0.247C0.34,-0.298 0.319,-0.324 0.278,-0.324C0.26,-0.324 0.245,-0.317 0.232,-0.303C0.219,-0.29 0.212,-0.274 0.212,-0.257C0.212,-0.238 0.218,-0.223 0.231,-0.21C0.243,-0.198 0.259,-0.192 0.277,-0.192C0.29,-0.192 0.302,-0.195 0.313,-0.201Z" style="fill-rule:nonzero;"/>
                </g>
                <g transform="matrix(125,0,0,125,1468.59,196.784)">
                    <path d="M0.236,-0.487L0.236,-0L0.053,-0L0.053,-0.487L0.236,-0.487ZM0.145,-0.704C0.17,-0.704 0.191,-0.695 0.209,-0.678C0.227,-0.661 0.236,-0.64 0.236,-0.616C0.236,-0.591 0.228,-0.57 0.211,-0.554C0.194,-0.537 0.172,-0.529 0.145,-0.529C0.118,-0.529 0.096,-0.537 0.079,-0.554C0.062,-0.57 0.054,-0.591 0.054,-0.616C0.054,-0.64 0.063,-0.661 0.081,-0.678C0.099,-0.695 0.12,-0.704 0.145,-0.704Z" style="fill-rule:nonzero;"/>
                </g>
                <g transform="matrix(125,0,0,125,1504.85,196.784)">
                    <path d="M0.487,-0L0.305,-0L0.305,-0.275C0.305,-0.303 0.293,-0.317 0.27,-0.317C0.247,-0.317 0.236,-0.303 0.236,-0.275L0.236,-0L0.053,-0L0.053,-0.271C0.053,-0.335 0.074,-0.388 0.116,-0.432C0.158,-0.475 0.21,-0.497 0.271,-0.497C0.34,-0.497 0.396,-0.472 0.438,-0.421C0.471,-0.382 0.487,-0.327 0.487,-0.257L0.487,-0Z" style="fill-rule:nonzero;"/>
                </g>
                <g transform="matrix(125,0,0,125,1572.41,196.784)">
                    <path d="M0.532,-0.214L0.255,-0.214C0.251,-0.228 0.249,-0.241 0.249,-0.252C0.249,-0.269 0.251,-0.285 0.257,-0.3L0.35,-0.3C0.344,-0.336 0.323,-0.354 0.289,-0.354C0.266,-0.354 0.248,-0.345 0.233,-0.325C0.219,-0.306 0.212,-0.281 0.212,-0.251C0.212,-0.219 0.219,-0.194 0.233,-0.174C0.247,-0.155 0.265,-0.145 0.287,-0.145C0.305,-0.145 0.323,-0.154 0.34,-0.172L0.444,-0.047C0.395,-0.009 0.341,0.01 0.282,0.01C0.21,0.01 0.149,-0.014 0.1,-0.063C0.051,-0.111 0.026,-0.172 0.026,-0.243C0.026,-0.314 0.051,-0.375 0.101,-0.424C0.15,-0.473 0.211,-0.498 0.284,-0.498C0.354,-0.498 0.414,-0.474 0.462,-0.426C0.51,-0.378 0.534,-0.318 0.534,-0.248C0.534,-0.241 0.533,-0.229 0.532,-0.214Z" style="fill-rule:nonzero;"/>
                </g>
                <g transform="matrix(125,0,0,125,1641.69,196.784)">
                    <path d="M0.532,-0.214L0.255,-0.214C0.251,-0.228 0.249,-0.241 0.249,-0.252C0.249,-0.269 0.251,-0.285 0.257,-0.3L0.35,-0.3C0.344,-0.336 0.323,-0.354 0.289,-0.354C0.266,-0.354 0.248,-0.345 0.233,-0.325C0.219,-0.306 0.212,-0.281 0.212,-0.251C0.212,-0.219 0.219,-0.194 0.233,-0.174C0.247,-0.155 0.265,-0.145 0.287,-0.145C0.305,-0.145 0.323,-0.154 0.34,-0.172L0.444,-0.047C0.395,-0.009 0.341,0.01 0.282,0.01C0.21,0.01 0.149,-0.014 0.1,-0.063C0.051,-0.111 0.026,-0.172 0.026,-0.243C0.026,-0.314 0.051,-0.375 0.101,-0.424C0.15,-0.473 0.211,-0.498 0.284,-0.498C0.354,-0.498 0.414,-0.474 0.462,-0.426C0.51,-0.378 0.534,-0.318 0.534,-0.248C0.534,-0.241 0.533,-0.229 0.532,-0.214Z" style="fill-rule:nonzero;"/>
                </g>
                <g transform="matrix(125,0,0,125,1710.96,196.784)">
                    <path d="M0.32,-0.492L0.32,-0.296C0.308,-0.304 0.296,-0.307 0.286,-0.307C0.252,-0.307 0.236,-0.282 0.236,-0.231L0.236,-0L0.053,-0L0.053,-0.266C0.053,-0.336 0.072,-0.392 0.111,-0.434C0.149,-0.476 0.201,-0.497 0.265,-0.497C0.279,-0.497 0.298,-0.495 0.32,-0.492Z" style="fill-rule:nonzero;"/>
                </g>
                <g transform="matrix(125,0,0,125,1782.31,196.784)">
                    <path d="M0.067,-0.667L0.309,-0.667C0.453,-0.667 0.524,-0.61 0.524,-0.497C0.524,-0.441 0.5,-0.395 0.451,-0.357C0.522,-0.326 0.558,-0.271 0.558,-0.192C0.558,-0.131 0.537,-0.083 0.495,-0.046C0.474,-0.029 0.452,-0.017 0.429,-0.01C0.405,-0.003 0.374,-0 0.334,-0L0.296,-0L0.296,-0.171L0.33,-0.171C0.35,-0.171 0.364,-0.174 0.372,-0.179C0.38,-0.184 0.384,-0.193 0.384,-0.206C0.384,-0.227 0.368,-0.238 0.334,-0.238L0.296,-0.238L0.296,-0.416C0.333,-0.416 0.351,-0.428 0.351,-0.453C0.351,-0.476 0.335,-0.488 0.302,-0.488L0.265,-0.488L0.265,-0L0.067,-0L0.067,-0.667Z" style="fill-rule:nonzero;"/>
                </g>
                <g transform="matrix(125,0,0,125,1853.66,196.784)">
                    <rect x="0.053" y="-0.667" width="0.183" height="0.667" style="fill-rule:nonzero;"/>
                </g>
                <g transform="matrix(125,0,0,125,1889.85,196.784)">
                    <path d="M0.284,-0.497C0.353,-0.497 0.412,-0.472 0.462,-0.423C0.511,-0.373 0.536,-0.313 0.536,-0.244C0.536,-0.174 0.511,-0.114 0.461,-0.064C0.411,-0.015 0.35,0.01 0.28,0.01C0.209,0.01 0.149,-0.015 0.099,-0.065C0.049,-0.114 0.023,-0.174 0.023,-0.244C0.023,-0.315 0.049,-0.375 0.099,-0.424C0.149,-0.473 0.211,-0.497 0.284,-0.497ZM0.279,-0.317C0.26,-0.317 0.243,-0.31 0.229,-0.296C0.216,-0.281 0.209,-0.264 0.209,-0.244C0.209,-0.223 0.216,-0.206 0.23,-0.192C0.244,-0.178 0.26,-0.17 0.279,-0.17C0.299,-0.17 0.316,-0.178 0.329,-0.192C0.343,-0.206 0.35,-0.223 0.35,-0.244C0.35,-0.264 0.343,-0.281 0.33,-0.296C0.316,-0.31 0.299,-0.317 0.279,-0.317Z" style="fill-rule:nonzero;"/>
                </g>
                <g transform="matrix(125,0,0,125,1959.68,196.784)">
                    <path d="M0.313,-0.201L0.313,-0.033C0.287,-0.023 0.261,-0.019 0.237,-0.019C0.178,-0.019 0.128,-0.041 0.088,-0.085C0.047,-0.13 0.026,-0.185 0.026,-0.249C0.026,-0.319 0.051,-0.377 0.1,-0.425C0.149,-0.473 0.21,-0.497 0.281,-0.497C0.319,-0.497 0.356,-0.489 0.391,-0.474C0.425,-0.459 0.453,-0.438 0.473,-0.413C0.506,-0.37 0.522,-0.308 0.522,-0.227L0.522,-0.002C0.522,0.085 0.498,0.155 0.448,0.209C0.399,0.264 0.335,0.291 0.256,0.291C0.232,0.291 0.201,0.285 0.165,0.273L0.165,0.107C0.188,0.12 0.212,0.126 0.237,0.126C0.27,0.126 0.295,0.115 0.313,0.094C0.331,0.072 0.34,0.041 0.34,0.001L0.34,-0.247C0.34,-0.298 0.319,-0.324 0.278,-0.324C0.26,-0.324 0.245,-0.317 0.232,-0.303C0.219,-0.29 0.212,-0.274 0.212,-0.257C0.212,-0.238 0.218,-0.223 0.231,-0.21C0.243,-0.198 0.259,-0.192 0.277,-0.192C0.29,-0.192 0.302,-0.195 0.313,-0.201Z" style="fill-rule:nonzero;"/>
                </g>
            </g>
            <g id="Harlow-Solid-Italic" serif:id="Harlow Solid Italic">
            </g>
            <g id="Rockwell">
            </g>
            <g id="Magneto1" serif:id="Magneto">
            </g>
            <g id="Bauhaus-931" serif:id="Bauhaus 93">
            </g>
            <g id="Harlow-Solid-Italic1" serif:id="Harlow Solid Italic">
            </g>
            <g id="Rockwell1" serif:id="Rockwell">
            </g>
            <g id="廻想体">
            </g>
            <g id="廻想体1" serif:id="廻想体">
            </g>
            <g transform="matrix(0.248087,0,0,0.17598,2954.75,719.53)">
                <g id="廻想体2" serif:id="廻想体">
                    <g transform="matrix(167.663,0,0,225,167.638,275.334)">
                        <path d="M0.45,-0.318L0.358,-0.296L0.358,0.022L0.277,0.022L0.277,-0.277L0.219,-0.263L0.18,-0.335L0.277,-0.358L0.277,-0.577L0.193,-0.577L0.193,-0.655L0.277,-0.655L0.277,-0.782L0.358,-0.782L0.358,-0.655L0.425,-0.655L0.425,-0.577L0.358,-0.577L0.358,-0.377L0.412,-0.39L0.45,-0.318ZM0.814,-0.523L0.665,-0.281L0.803,-0.046L0.76,0.034L0.607,-0.226L0.447,0.033L0.404,-0.048L0.55,-0.284L0.462,-0.433L0.542,-0.433L0.602,-0.332L0.675,-0.452L0.437,-0.452L0.437,-0.523L0.573,-0.523L0.573,-0.608L0.438,-0.608L0.438,-0.677L0.573,-0.677L0.573,-0.782L0.653,-0.782L0.653,-0.677L0.807,-0.677L0.807,-0.608L0.653,-0.608L0.653,-0.523L0.814,-0.523Z" style="fill-rule:nonzero;"/>
                    </g>
                    <g transform="matrix(167.663,0,0,225,335.302,275.334)">
                        <path d="M0.815,-0.053L0.772,0.028L0.502,-0.281L0.228,0.031L0.185,-0.048L0.457,-0.359L0.457,-0.543L0.2,-0.543L0.2,-0.626L0.457,-0.626L0.457,-0.782L0.542,-0.782L0.542,-0.626L0.8,-0.626L0.8,-0.543L0.542,-0.543L0.542,-0.365L0.815,-0.053Z" style="fill-rule:nonzero;"/>
                    </g>
                    <g transform="matrix(167.663,0,0,225,502.965,275.334)">
                        <path d="M0.661,-0.439L0.661,-0.366L0.339,-0.366L0.339,-0.439L0.661,-0.439ZM0.226,-0.05L0.339,-0.216L0.432,-0.216L0.267,0.027L0.226,-0.05ZM0.567,-0.216L0.662,-0.216L0.777,-0.047L0.735,0.032L0.567,-0.216ZM0.816,-0.349L0.777,-0.281L0.777,-0.238L0.541,-0.238L0.541,0.022L0.459,0.022L0.459,-0.238L0.223,-0.238L0.223,-0.272L0.184,-0.346L0.322,-0.549L0.279,-0.525L0.238,-0.585L0.216,-0.552L0.178,-0.623L0.286,-0.783L0.372,-0.783L0.357,-0.76L0.554,-0.76L0.25,-0.311L0.751,-0.311L0.515,-0.658L0.557,-0.731L0.566,-0.718L0.566,-0.765L0.809,-0.765L0.671,-0.563L0.816,-0.349ZM0.422,-0.696L0.313,-0.696L0.305,-0.685L0.358,-0.685L0.387,-0.643L0.422,-0.696ZM0.288,-0.622L0.33,-0.56L0.37,-0.619L0.339,-0.602L0.294,-0.668L0.263,-0.622L0.288,-0.622ZM0.666,-0.698L0.58,-0.698L0.623,-0.634L0.666,-0.698Z" style="fill-rule:nonzero;"/>
                    </g>
                    <g transform="matrix(167.663,0,0,225,670.629,275.334)">
                        <path d="M0.279,-0.655L0.279,-0.58L0.201,-0.58L0.201,-0.729L0.459,-0.729L0.459,-0.787L0.541,-0.787L0.541,-0.729L0.8,-0.729L0.8,-0.58L0.72,-0.58L0.72,-0.655L0.279,-0.655ZM0.805,-0.045L0.766,0.028L0.502,-0.146L0.234,0.026L0.195,-0.047L0.459,-0.218L0.459,-0.232L0.208,-0.232L0.208,-0.306L0.459,-0.306L0.459,-0.367L0.288,-0.367L0.288,-0.44L0.459,-0.44L0.459,-0.501L0.252,-0.501L0.252,-0.574L0.459,-0.574L0.459,-0.647L0.541,-0.647L0.541,-0.574L0.748,-0.574L0.748,-0.501L0.541,-0.501L0.541,-0.44L0.716,-0.44L0.716,-0.367L0.541,-0.367L0.541,-0.306L0.796,-0.306L0.796,-0.232L0.541,-0.232L0.541,-0.219L0.805,-0.045Z" style="fill-rule:nonzero;"/>
                    </g>
                    <g transform="matrix(167.663,0,0,225,838.292,275.334)">
                        <path d="M0.78,-0.764L0.78,-0.683L0.462,-0.683L0.462,-0.764L0.78,-0.764ZM0.804,-0.554L0.804,-0.473L0.708,-0.473L0.708,0.022L0.574,0.022L0.528,-0.062L0.623,-0.062L0.623,-0.473L0.424,-0.473L0.424,-0.554L0.804,-0.554ZM0.39,-0.782L0.231,-0.561L0.187,-0.643L0.288,-0.782L0.39,-0.782ZM0.318,-0.595L0.42,-0.595L0.355,-0.503L0.355,0.022L0.271,0.022L0.271,-0.387L0.233,-0.334L0.189,-0.416L0.318,-0.595Z" style="fill-rule:nonzero;"/>
                    </g>
                    <g transform="matrix(167.663,0,0,225,1005.96,275.334)">
                        <path d="M0.71,-0.309L0.561,-0.205L0.804,-0.035L0.767,0.034L0.492,-0.156L0.23,0.028L0.195,-0.037L0.346,-0.143L0.346,-0.309L0.198,-0.309L0.198,-0.38L0.232,-0.38L0.198,-0.443L0.355,-0.552L0.197,-0.552L0.197,-0.626L0.459,-0.626L0.459,-0.667L0.287,-0.637L0.249,-0.708L0.697,-0.786L0.735,-0.715L0.541,-0.681L0.541,-0.626L0.803,-0.626L0.803,-0.552L0.654,-0.552L0.807,-0.445L0.772,-0.38L0.802,-0.38L0.802,-0.309L0.71,-0.309ZM0.237,-0.38L0.346,-0.38L0.346,-0.433L0.426,-0.433L0.426,-0.38L0.764,-0.38L0.541,-0.537L0.541,-0.418L0.459,-0.418L0.459,-0.536L0.237,-0.38ZM0.578,-0.309L0.426,-0.309L0.426,-0.202L0.578,-0.309Z" style="fill-rule:nonzero;"/>
                    </g>
                    <g transform="matrix(167.663,0,0,225,1173.62,275.334)">
                        <path d="M0.734,-0.773L0.734,-0.582L0.267,-0.582L0.267,-0.773L0.734,-0.773ZM0.651,-0.651L0.651,-0.705L0.349,-0.705L0.349,-0.651L0.651,-0.651ZM0.225,-0.017L0.307,-0.102L0.431,-0.102L0.306,0.027L0.225,-0.017ZM0.708,-0.102L0.789,-0.019L0.708,0.025L0.584,-0.102L0.708,-0.102ZM0.754,-0.555L0.754,-0.122L0.246,-0.122L0.246,-0.555L0.754,-0.555ZM0.669,-0.482L0.331,-0.482L0.331,-0.431L0.669,-0.431L0.669,-0.482ZM0.669,-0.362L0.331,-0.362L0.331,-0.313L0.669,-0.313L0.669,-0.362ZM0.331,-0.193L0.669,-0.193L0.669,-0.244L0.331,-0.244L0.331,-0.193Z" style="fill-rule:nonzero;"/>
                    </g>
                    <g transform="matrix(167.663,0,0,225,1341.28,275.334)">
                        <path d="M0.304,-0.493L0.304,-0.569L0.696,-0.569L0.696,-0.493L0.304,-0.493ZM0.213,-0.347L0.213,-0.422L0.787,-0.422L0.787,-0.347L0.525,-0.347L0.412,-0.089L0.647,-0.089L0.586,-0.23L0.678,-0.23L0.78,0.004L0.705,0.044L0.68,-0.013L0.241,-0.013L0.241,-0.089L0.323,-0.089L0.435,-0.347L0.213,-0.347ZM0.501,-0.694L0.221,-0.584L0.182,-0.659L0.503,-0.785L0.826,-0.658L0.785,-0.582L0.501,-0.694Z" style="fill-rule:nonzero;"/>
                    </g>
                    <g transform="matrix(167.663,0,0,225,1555.39,275.334)">
                        <path d="M0.253,-0.641L0.253,-0.782L0.333,-0.782L0.333,0.022L0.253,0.022L0.253,-0.49L0.23,-0.444L0.165,-0.478L0.251,-0.643L0.253,-0.641ZM0.65,-0.504L0.811,-0.504L0.811,-0.428L0.408,-0.428L0.408,-0.504L0.57,-0.504L0.57,-0.546L0.434,-0.546L0.434,-0.615L0.57,-0.615L0.57,-0.655L0.416,-0.655L0.416,-0.731L0.57,-0.731L0.57,-0.782L0.65,-0.782L0.65,-0.731L0.804,-0.731L0.804,-0.655L0.65,-0.655L0.65,-0.615L0.785,-0.615L0.785,-0.546L0.65,-0.546L0.65,-0.504ZM0.446,0.022L0.446,-0.412L0.774,-0.412L0.774,0.022L0.695,0.022L0.695,-0.096L0.524,-0.096L0.524,0.022L0.446,0.022ZM0.524,-0.167L0.695,-0.167L0.695,-0.217L0.524,-0.217L0.524,-0.167ZM0.695,-0.339L0.524,-0.339L0.524,-0.288L0.695,-0.288L0.695,-0.339ZM0.34,-0.48L0.34,-0.689L0.407,-0.689L0.407,-0.48L0.34,-0.48Z" style="fill-rule:nonzero;"/>
                    </g>
                    <g transform="matrix(167.663,0,0,225,1723.05,275.334)">
                        <path d="M0.379,-0.662L0.379,-0.618L0.493,-0.618L0.493,-0.549L0.456,-0.549L0.415,-0.421L0.493,-0.421L0.493,-0.352L0.378,-0.352L0.378,-0.272L0.473,-0.272L0.473,-0.199L0.378,-0.199L0.378,0.022L0.298,0.022L0.298,-0.199L0.202,-0.199L0.202,-0.272L0.298,-0.272L0.298,-0.352L0.182,-0.352L0.182,-0.421L0.337,-0.421L0.378,-0.549L0.294,-0.549L0.322,-0.462L0.255,-0.426L0.216,-0.549L0.182,-0.549L0.182,-0.618L0.297,-0.618L0.297,-0.662L0.201,-0.662L0.201,-0.729L0.297,-0.729L0.297,-0.782L0.379,-0.782L0.379,-0.729L0.474,-0.729L0.474,-0.662L0.379,-0.662ZM0.822,-0.498L0.745,-0.255L0.827,-0.057L0.779,0.032L0.697,-0.167L0.633,0.032L0.587,-0.056L0.647,-0.245L0.587,-0.389L0.66,-0.389L0.687,-0.323L0.72,-0.424L0.574,-0.424L0.574,0.022L0.5,0.022L0.5,-0.77L0.831,-0.77L0.759,-0.542L0.647,-0.542L0.609,-0.613L0.699,-0.613L0.726,-0.699L0.574,-0.699L0.574,-0.498L0.822,-0.498Z" style="fill-rule:nonzero;"/>
                    </g>
                    <g transform="matrix(167.663,0,0,225,1890.72,275.334)">
                        <path d="M0.214,0.022L0.214,-0.331L0.481,-0.331L0.481,0.022L0.214,0.022ZM0.294,-0.257L0.294,-0.053L0.401,-0.053L0.401,-0.257L0.294,-0.257ZM0.468,-0.626L0.417,-0.45L0.509,-0.45L0.509,-0.377L0.181,-0.377L0.181,-0.45L0.337,-0.45L0.388,-0.626L0.3,-0.626L0.338,-0.496L0.271,-0.461L0.223,-0.626L0.19,-0.626L0.19,-0.699L0.306,-0.699L0.306,-0.785L0.385,-0.785L0.385,-0.699L0.501,-0.699L0.501,-0.626L0.468,-0.626ZM0.743,-0.514L0.799,-0.323L0.799,-0.055L0.659,-0.055L0.621,-0.126L0.719,-0.126L0.719,-0.318L0.659,-0.522L0.714,-0.689L0.603,-0.689L0.603,0.022L0.519,0.022L0.519,-0.765L0.825,-0.765L0.743,-0.514Z" style="fill-rule:nonzero;"/>
                    </g>
                    <g transform="matrix(167.663,0,0,225,2058.38,275.334)">
                        <path d="M0.192,0.022L0.192,-0.773L0.48,-0.773L0.48,-0.422L0.273,-0.422L0.273,0.022L0.192,0.022ZM0.273,-0.491L0.409,-0.491L0.409,-0.566L0.273,-0.566L0.273,-0.491ZM0.409,-0.705L0.273,-0.705L0.273,-0.63L0.409,-0.63L0.409,-0.705ZM0.522,-0.773L0.809,-0.773L0.809,0.022L0.727,0.022L0.727,-0.422L0.522,-0.422L0.522,-0.773ZM0.727,-0.705L0.593,-0.705L0.593,-0.63L0.727,-0.63L0.727,-0.705ZM0.593,-0.491L0.727,-0.491L0.727,-0.566L0.593,-0.566L0.593,-0.491Z" style="fill-rule:nonzero;"/>
                    </g>
                </g>
            </g>
            <g id="Bauhaus-932" serif:id="Bauhaus 93">
            </g>
            <g transform="matrix(0.248087,0,0,0.17598,3243.27,489.378)">
                <g id="廻想体3" serif:id="廻想体">
                </g>
            </g>
            <g id="廻想体4" serif:id="廻想体">
            </g>
            <g id="GN-きんいろサンセリフ">
            </g>
            <g id="GN-きんいろサンセリフ1" serif:id="GN-きんいろサンセリフ">
            </g>
            <g id="GN-きんいろサンセリフ2" serif:id="GN-きんいろサンセリフ">
            </g>
            <g id="GN-きんいろサンセリフ3" serif:id="GN-きんいろサンセリフ">
            </g>
            <g id="GN-きんいろサンセリフ4" serif:id="GN-きんいろサンセリフ">
            </g>
        </g>
    </g>
</svg>
